PathFileType	4	(X/Y/Z)	TVC_58_BWA_03_walk_RCNL2025.trc
DataRate	CameraRate	NumFrames	NumMarkers	Units	OrigDataRate	OrigDataStartFrame	OrigNumFrames
100	100	9	27	mm	100	42	335
Frame#	Time	R_Shoulder			L_Shoulder			C7			J_Notch			R_Elbow			L_Elbow			R_Wrist			L_Wrist			R_Asis			L_Asis			R_Psis			L_Psis			Sacral			Thoracic			Sternum			R_Thigh_Lateral			R_Knee_Lateral			R_Shank_Lateral			R_Ankle_Lateral			R_Heel			R_Toe			L_Thigh_Lateral			L_Knee_Lateral			L_Shank_Lateral			L_Ankle_Lateral			L_Heel			L_Toe		
		X1	Y1	Z1	X2	Y2	Z2	X3	Y3	Z3	X4	Y4	Z4	X5	Y5	Z5	X6	Y6	Z6	X7	Y7	Z7	X8	Y8	Z8	X9	Y9	Z9	X10	Y10	Z10	X11	Y11	Z11	X12	Y12	Z12	X13	Y13	Z13	X14	Y14	Z14	X15	Y15	Z15	X16	Y16	Z16	X17	Y17	Z17	X18	Y18	Z18	X19	Y19	Z19	X20	Y20	Z20	X21	Y21	Z21	X22	Y22	Z22	X23	Y23	Z23	X24	Y24	Z24	X25	Y25	Z25	X26	Y26	Z26	X27	Y27	Z27
42	0.41000000	-1597.040161	1329.218262	242.222870	-1579.428223	1353.761719	-114.628990	-1649.414307	1410.196777	56.413616	-1503.679443	1315.270630	66.516937	-1633.088867	1008.114197	299.539734	-1646.904175	1037.721436	-185.289474	-1543.820862	775.118408	332.712112	-1583.529602	800.913940	-244.472000	-1467.430542	915.042786	202.378922	-1471.741333	896.394287	-102.099609	-1697.620483	941.939453	108.465546	-1700.924805	929.341675	-4.629729	-1699.272644	935.640564	51.917908	-1693.549438	1103.567383	46.082760	-1395.710205	1084.776123	51.075783	-1495.106201	698.620667	288.515991	-1463.920776	468.178375	196.536407	-1488.847168	261.849457	232.500610	-1533.772827	66.930389	138.100998	-1588.893555	58.597492	86.846916	-1409.148438	46.066216	98.135994	-1552.919189	653.506531	-189.361847	-1515.575928	441.558746	-103.439537	-1670.354004	314.324799	-154.227203	-1858.793701	196.605179	-60.814041	-1882.168457	227.233978	-3.959053	-1802.966309	66.430786	-44.574535
43	0.42000000	-1587.925903	1330.086914	243.356201	-1571.426270	1354.589478	-113.509010	-1640.873535	1411.138672	57.722279	-1495.178467	1316.057373	67.385933	-1622.305664	1008.875977	301.587311	-1639.588501	1038.739380	-184.126511	-1528.986206	777.193787	333.909515	-1578.045166	801.584167	-243.429604	-1459.389404	915.109802	202.769836	-1464.528442	896.897888	-101.687431	-1689.809814	943.144409	109.648918	-1693.355957	929.754639	-3.423387	-1691.582886	936.449524	53.112765	-1685.377197	1104.590454	47.528519	-1387.694336	1084.904541	51.397285	-1487.869385	699.172791	288.485077	-1462.042725	467.796143	197.328201	-1487.968994	261.564789	233.278320	-1533.655273	66.793030	138.217834	-1588.893188	58.787663	87.080788	-1409.107056	45.987175	98.025146	-1540.916138	653.678284	-188.349396	-1496.409546	442.653442	-103.011192	-1650.104126	314.757721	-153.045471	-1841.288452	200.939743	-60.009914	-1864.608154	230.896454	-2.795788	-1785.298340	70.956848	-45.848248
44	0.43000000	-1578.717896	1330.853027	244.436081	-1563.479980	1355.300903	-112.447807	-1632.298218	1412.025391	58.996387	-1486.669434	1316.722046	68.172127	-1611.413208	1009.567932	303.604523	-1632.393799	1039.600830	-182.962494	-1514.153564	779.224518	335.043259	-1572.368103	802.181763	-242.363518	-1451.448364	915.042603	203.044815	-1457.541504	897.315063	-101.537743	-1682.156494	944.243042	110.735451	-1685.943848	930.142395	-2.248582	-1684.050171	937.192719	54.243434	-1677.293091	1105.583618	48.958523	-1379.758667	1084.861816	51.557384	-1480.688110	699.609802	288.391907	-1460.184448	467.417725	198.084000	-1487.214355	261.284180	234.071030	-1533.545776	66.670525	138.336624	-1588.891113	58.981674	87.313095	-1409.069702	45.927235	97.943771	-1529.032349	653.885864	-187.321457	-1477.317993	444.072632	-102.379654	-1629.832275	315.406219	-151.693680	-1822.898438	204.207870	-59.143631	-1846.478394	233.327606	-1.642572	-1765.612183	75.171364	-46.930687
45	0.44000000	-1569.423096	1331.517822	245.458878	-1555.583984	1355.901733	-111.446861	-1623.688721	1412.851440	60.232796	-1478.152832	1317.264404	68.876678	-1600.400757	1010.190430	305.578217	-1625.336548	1040.316162	-181.789719	-1499.345947	781.197571	336.110107	-1566.498352	802.713074	-241.273170	-1443.611572	914.858276	203.223892	-1450.756958	897.676331	-101.638237	-1674.649536	945.236572	111.721153	-1678.672485	930.517822	-1.107038	-1676.661011	937.877197	55.307058	-1669.292847	1106.541260	50.364975	-1371.900879	1084.668579	51.568035	-1473.610718	699.910095	288.257538	-1458.331177	467.039703	198.799454	-1486.558350	261.006714	234.855225	-1533.446411	66.563919	138.451797	-1588.885742	59.176628	87.535187	-1409.038086	45.883404	97.888985	-1517.280151	654.150818	-186.284546	-1458.373657	445.824554	-101.558929	-1609.646484	316.315338	-150.266861	-1803.656494	206.304092	-58.256512	-1827.797363	234.469360	-0.558956	-1744.055176	78.868187	-47.759991
46	0.45000000	-1560.050415	1332.084106	246.421188	-1547.731689	1356.398926	-110.507164	-1615.046021	1413.612183	61.428135	-1469.628906	1317.686035	69.501633	-1589.261108	1010.746094	307.494873	-1618.429077	1040.899170	-180.601852	-1484.584900	783.101929	337.107025	-1560.438171	803.185547	-240.158821	-1435.883423	914.574463	203.329071	-1444.145996	898.011536	-101.967720	-1667.275024	946.129700	112.605705	-1671.523926	930.893188	-0.001042	-1669.399475	938.511444	56.302331	-1661.371216	1107.458374	51.740044	-1364.117920	1084.346924	51.444855	-1466.682373	700.057861	288.100403	-1456.469238	466.658875	199.468475	-1485.972534	260.734772	235.606476	-1533.357300	66.473831	138.557816	-1588.875854	59.370735	87.739822	-1409.013184	45.851990	97.856201	-1505.667236	654.488098	-185.245544	-1439.647705	447.905548	-100.567375	-1589.562256	317.449432	-148.844879	-1783.593994	207.148529	-57.386433	-1808.570801	234.284714	0.403448	-1720.810913	81.869301	-48.288147
47	0.46000000	-1550.610229	1332.556763	247.319916	-1539.915527	1356.800659	-109.629250	-1606.371216	1414.303345	62.578835	-1461.098267	1317.989868	70.049881	-1577.989990	1011.238892	309.340881	-1611.678955	1041.365112	-179.394196	-1469.889526	784.928528	338.031174	-1554.192505	803.607178	-239.021606	-1428.267090	914.207764	203.383224	-1437.675293	898.347717	-102.496651	-1660.016602	946.929504	113.391968	-1664.479126	931.279053	1.065866	-1662.247864	939.104279	57.228917	-1653.522095	1108.329712	53.075935	-1356.405762	1083.918945	51.206707	-1459.942139	700.044617	287.935791	-1454.586304	466.272339	200.084167	-1485.427368	260.473022	236.302475	-1533.276855	66.400658	138.649765	-1588.860352	59.563622	87.921638	-1408.994385	45.829163	97.839943	-1494.196533	654.906433	-184.211227	-1421.210205	450.299530	-99.426491	-1569.523438	318.708435	-147.483307	-1762.737183	206.690094	-56.565125	-1788.791260	232.757004	1.205309	-1696.080444	84.037178	-48.484848
48	0.47000000	-1541.114014	1332.941162	248.152390	-1532.127075	1357.115356	-108.813232	-1597.666138	1414.921143	63.681168	-1452.561768	1318.179810	70.525047	-1566.587280	1011.673706	311.102844	-1605.088501	1041.730347	-178.164017	-1455.276978	786.669891	338.879852	-1547.768127	803.985535	-237.863754	-1420.765015	913.773254	203.408844	-1431.307251	898.707214	-103.188171	-1652.856445	947.645142	114.085258	-1657.518066	931.683533	2.088421	-1655.187256	939.664337	58.086840	-1645.738281	1109.150757	54.364990	-1348.759399	1083.406128	50.875153	-1453.420776	699.869141	287.775238	-1452.670044	465.877502	200.639603	-1484.894653	260.227295	236.925507	-1533.202148	66.344772	138.723923	-1588.838013	59.756420	88.077370	-1408.980347	45.811367	97.834641	-1482.867432	655.407898	-183.187820	-1403.130249	452.978241	-98.159943	-1549.437744	319.954742	-146.210968	-1741.105957	204.908920	-55.816422	-1768.437988	229.889252	1.822255	-1670.063843	85.283028	-48.339817
49	0.48000000	-1531.574463	1333.243408	248.916382	-1524.357056	1357.350952	-108.058846	-1588.933105	1415.462158	64.731277	-1444.020142	1318.260254	70.931412	-1555.056641	1012.055725	312.767914	-1598.655151	1042.010864	-176.910583	-1440.762085	788.320282	339.650375	-1541.173950	804.327332	-236.688515	-1413.378174	913.283813	203.426987	-1425.001465	899.105835	-103.999680	-1645.775146	948.286865	114.692566	-1650.620239	932.111694	3.059392	-1648.197693	940.199280	58.875979	-1638.011841	1109.916504	55.599747	-1341.172729	1082.827881	50.473759	-1447.139038	699.537598	287.626709	-1450.709229	465.472260	201.128891	-1484.348145	260.003326	237.464233	-1533.128784	66.306648	138.778091	-1588.807617	59.951725	88.205925	-1408.969116	45.795551	97.835182	-1471.677490	655.988586	-182.180954	-1385.475708	455.901672	-96.792656	-1529.216797	321.043335	-145.033218	-1718.711182	201.817505	-55.155643	-1747.477905	225.703995	2.245611	-1642.945068	85.570503	-47.863430
50	0.49000000	-1522.004761	1333.469360	249.610199	-1516.595947	1357.514771	-107.365517	-1580.174805	1415.923340	65.725227	-1435.474243	1318.236206	71.273788	-1543.405273	1012.389709	314.324219	-1592.370605	1042.221313	-175.635391	-1426.357727	789.875183	340.340164	-1534.420166	804.637634	-235.500244	-1406.105713	912.749268	203.456375	-1418.715820	899.552307	-104.884743	-1638.753662	948.865051	115.221565	-1643.764771	932.565369	3.969618	-1641.259216	940.715210	59.595592	-1630.334473	1110.621826	56.772991	-1333.638794	1082.200928	50.027340	-1441.106445	699.062378	287.494476	-1448.692871	465.054993	201.547760	-1483.764282	259.805603	237.914642	-1533.052002	66.286911	138.811676	-1588.767822	60.153370	88.308235	-1408.958740	45.779305	97.837311	-1460.624023	656.639160	-181.195602	-1368.312866	459.019287	-95.350082	-1508.806274	321.846954	-143.938599	-1695.554932	197.461197	-54.590012	-1725.866943	220.243881	2.481222	-1614.879883	84.915237	-47.085587
